<?xml version="1.0" encoding="utf-8"?>
<!-- Generator: Adobe Illustrator 27.5.0, SVG Export Plug-In . SVG Version: 6.00 Build 0)  -->
<svg version="1.1" xmlns="http://www.w3.org/2000/svg" xmlns:xlink="http://www.w3.org/1999/xlink" x="0px" y="0px"
	 viewBox="0 0 2200 2200" style="enable-background:new 0 0 2200 2200;" xml:space="preserve">
<g id="background">
	<rect style="fill:#FFFFFF;" width="2200" height="2200"/>
</g>
<g id="Objects">
	<g>
		<g>
			<path style="fill:#3EB5E5;" d="M1505.86,616.139l-360.248-360.247c-25.189-25.189-66.028-25.189-91.217,0L694.138,616.149
				L333.891,976.397c-25.189,25.189-25.189,66.028,0,91.217l360.247,360.247l360.247,360.247c25.189,25.189,66.028,25.189,91.217,0
				l360.247-360.247l360.258-360.258c25.189-25.189,25.189-66.028,0-91.217L1505.86,616.139z"/>
			<path style="fill:#399FD8;" d="M1866.102,1067.606l-360.259,360.259l-116.118-116.118c-4.022,35.874-20.445,70.636-49.182,97.37
				c-60.794,56.553-156.614,55.427-216.15-2.442c-62.9-61.174-63.441-161.732-1.623-223.55
				c26.163-26.163,59.244-41.139,93.363-44.985l-116.133-116.133l116.133-116.148c3.846,34.119,18.822,67.199,44.985,93.363
				c61.818,61.818,162.375,61.277,223.55-1.623c57.869-59.522,58.995-155.356,2.442-216.135
				c-26.734-28.752-61.496-45.16-97.384-49.197l116.133-116.133l360.245,360.259C1891.3,1001.577,1891.3,1042.408,1866.102,1067.606
				z"/>
			<path style="fill:#399FD8;" d="M715.327,1046.41c-57.869,59.523-58.996,155.354-2.451,216.139
				c26.742,28.748,61.498,45.159,97.382,49.193l-116.12,116.12l-360.247-360.247c-25.189-25.189-25.189-66.028,0-91.217
				l360.247-360.247l116.12,116.12c4.033-35.883,20.444-70.64,49.193-97.382c60.785-56.545,156.615-55.418,216.139,2.451
				c62.905,61.167,63.443,161.724,1.624,223.543c-26.163,26.163-59.244,41.147-93.359,44.984l116.141,116.141l-116.141,116.141
				c-3.837-34.115-18.821-67.196-44.984-93.359C877.051,982.968,776.494,983.505,715.327,1046.41z"/>
		</g>
		<ellipse style="fill:#C5D7DD;" cx="1100" cy="1928" rx="533.5" ry="35"/>
	</g>
</g>
</svg>
